<?xml version="1.0" encoding="UTF-8"?>
<svg width="93px" height="93px" viewBox="0 0 93 93" version="1.1" xmlns="http://www.w3.org/2000/svg" xmlns:xlink="http://www.w3.org/1999/xlink">
    <!-- Generator: Sketch 45.2 (43514) - http://www.bohemiancoding.com/sketch -->
    <title>Fill 16</title>
    <desc>Created with Sketch.</desc>
    <defs></defs>
    <g id="Page-1" stroke="none" stroke-width="1" fill="none" fill-rule="evenodd">
        <g id="cameron" transform="translate(-106.000000, 0.000000)" fill="#FFFFFF">
            <path d="M189.906,20.136 L179.495,54.601 C179.276,55.326 178.854,55.944 178.202,56.44 C177.494,56.978 176.698,57.244 175.817,57.244 C174.457,57.244 173.279,56.44 172.282,54.831 L165.961,44.515 L159.611,54.831 C158.634,56.44 157.465,57.244 156.105,57.244 C155.224,57.244 154.443,56.986 153.763,56.468 C153.083,55.951 152.638,55.329 152.427,54.601 L148.615,41.556 L132.534,41.556 C130.776,41.556 129.32,42.03 128.171,42.983 C127.027,43.931 126.452,45.147 126.452,46.627 C126.452,48.088 127.026,49.281 128.171,50.2 C129.32,51.124 130.776,51.584 132.534,51.584 L147.054,51.584 L142.916,56.928 L132.515,56.928 C128.913,56.928 125.929,55.927 123.564,53.926 C121.198,51.924 120.015,49.41 120.015,46.383 C120.015,43.356 121.184,40.904 123.52,39.027 C125.858,37.15 128.856,36.211 132.515,36.211 L154.094,36.211 L156.823,47.159 L162.628,37.82 C163.394,36.594 164.448,35.981 165.788,35.981 C166.497,35.981 167.173,36.154 167.814,36.499 C168.456,36.843 168.949,37.284 169.294,37.82 L175.099,47.159 L182.769,20.375 C182.137,19.645 181.48,18.939 180.797,18.257 C173.541,11 163.515,6.512 152.442,6.512 C141.368,6.512 131.342,11 124.085,18.257 C116.829,25.513 112.34,35.539 112.34,46.613 C112.34,57.687 116.829,67.712 124.085,74.969 C131.342,82.225 141.368,86.714 152.442,86.714 C163.515,86.714 173.541,82.225 180.797,74.969 C188.054,67.712 192.543,57.687 192.543,46.613 C192.543,43.448 192.175,40.369 191.482,37.416 L194.338,27.907 C196.893,33.62 198.314,39.95 198.314,46.613 C198.314,59.279 193.18,70.748 184.878,79.049 C176.577,87.351 165.108,92.486 152.442,92.486 C139.775,92.486 128.306,87.351 120.005,79.049 C111.703,70.748 106.568,59.279 106.568,46.613 C106.568,33.946 111.703,22.477 120.005,14.176 C128.306,5.875 139.775,0.74 152.442,0.74 C165.108,0.74 176.577,5.875 184.878,14.176 C186.655,15.954 188.288,17.876 189.755,19.925 L189.906,20.136" id="Fill-16"></path>
        </g>
    </g>
</svg>